<svg width="35" height="35" viewBox="0 0 35 35" fill="none" xmlns="http://www.w3.org/2000/svg">
<path d="M17.5 9.29688C17.5 13.8273 13.9023 17.5 9.46427 17.5H1.42856V9.29688C1.42856 4.76641 5.02627 1.09375 9.46427 1.09375C13.9023 1.09375 17.5 4.76641 17.5 9.29688Z" fill="#6CB699"/>
<path d="M17.5 25.7031C17.5 21.1727 21.0977 17.5 25.5357 17.5H33.5714V25.7031C33.5714 30.2336 29.9737 33.9062 25.5357 33.9062C21.0977 33.9062 17.5 30.2336 17.5 25.7031Z" fill="#6CB699"/>
<path d="M1.42856 25.7031C1.42856 30.2336 5.02627 33.9062 9.46427 33.9062H17.5V25.7031C17.5 21.1727 13.9023 17.5 9.46427 17.5C5.02627 17.5 1.42856 21.1727 1.42856 25.7031Z" fill="#6CB699"/>
<path d="M33.5714 9.29688C33.5714 4.76641 29.9737 1.09375 25.5357 1.09375H17.5V9.29688C17.5 13.8273 21.0977 17.5 25.5357 17.5C29.9737 17.5 33.5714 13.8273 33.5714 9.29688Z" fill="#6CB699"/>
</svg>
