<svg width="151" height="38" viewBox="0 0 151 38" fill="none" xmlns="http://www.w3.org/2000/svg">
<path d="M17.5 10.2969C17.5 14.8273 13.9023 18.5 9.46427 18.5H1.42856V10.2969C1.42856 5.76641 5.02627 2.09375 9.46427 2.09375C13.9023 2.09375 17.5 5.76641 17.5 10.2969Z" fill="#6CB699"/>
<path d="M17.5 26.7031C17.5 22.1727 21.0977 18.5 25.5357 18.5H33.5714V26.7031C33.5714 31.2336 29.9737 34.9062 25.5357 34.9062C21.0977 34.9062 17.5 31.2336 17.5 26.7031Z" fill="#6CB699"/>
<path d="M1.42856 26.7031C1.42856 31.2336 5.02627 34.9062 9.46427 34.9062H17.5V26.7031C17.5 22.1727 13.9023 18.5 9.46427 18.5C5.02627 18.5 1.42856 22.1727 1.42856 26.7031Z" fill="#6CB699"/>
<path d="M33.5714 10.2969C33.5714 5.76641 29.9737 2.09375 25.5357 2.09375H17.5V10.2969C17.5 14.8273 21.0977 18.5 25.5357 18.5C29.9737 18.5 33.5714 14.8273 33.5714 10.2969Z" fill="#6CB699"/>
<path d="M63.36 11.152H56.096V30H51.712V11.152H44.448V7.28H63.36V11.152ZM61.8625 25.04C61.8625 23.952 62.1612 23.0027 62.7585 22.192C63.3772 21.36 64.2305 20.72 65.3185 20.272C66.4065 19.824 67.6545 19.6 69.0625 19.6C69.7665 19.6 70.4812 19.6533 71.2065 19.76C71.9318 19.8667 72.5612 20.0373 73.0945 20.272V19.376C73.0945 18.3093 72.7745 17.488 72.1345 16.912C71.5158 16.336 70.5878 16.048 69.3505 16.048C68.4332 16.048 67.5585 16.208 66.7265 16.528C65.8945 16.848 65.0198 17.3173 64.1025 17.936L62.7265 15.12C63.8358 14.3947 64.9665 13.8507 66.1185 13.488C67.2918 13.1253 68.5185 12.944 69.7985 12.944C72.1878 12.944 74.0438 13.5413 75.3665 14.736C76.7105 15.9307 77.3825 17.6373 77.3825 19.856V25.2C77.3825 25.648 77.4572 25.968 77.6065 26.16C77.7772 26.352 78.0438 26.4693 78.4065 26.512V30C78.0225 30.064 77.6705 30.1173 77.3505 30.16C77.0518 30.2027 76.7958 30.224 76.5825 30.224C75.7292 30.224 75.0785 30.032 74.6305 29.648C74.2038 29.264 73.9372 28.7947 73.8305 28.24L73.7345 27.376C73.0092 28.3147 72.1025 29.04 71.0145 29.552C69.9265 30.064 68.8172 30.32 67.6865 30.32C66.5772 30.32 65.5745 30.096 64.6785 29.648C63.8038 29.1787 63.1105 28.5493 62.5985 27.76C62.1078 26.9493 61.8625 26.0427 61.8625 25.04ZM72.2945 25.904C72.5292 25.648 72.7212 25.392 72.8705 25.136C73.0198 24.88 73.0945 24.6453 73.0945 24.432V22.736C72.5825 22.5227 72.0278 22.3627 71.4305 22.256C70.8332 22.128 70.2678 22.064 69.7345 22.064C68.6252 22.064 67.7078 22.3093 66.9825 22.8C66.2785 23.2693 65.9265 23.8987 65.9265 24.688C65.9265 25.1147 66.0438 25.52 66.2785 25.904C66.5132 26.288 66.8545 26.5973 67.3025 26.832C67.7505 27.0667 68.2838 27.184 68.9025 27.184C69.5425 27.184 70.1718 27.0667 70.7905 26.832C71.4092 26.576 71.9105 26.2667 72.2945 25.904ZM87.5655 30.32C86.1362 30.32 84.7708 30.0853 83.4695 29.616C82.1682 29.1467 81.0482 28.4533 80.1095 27.536L81.6455 24.752C82.6482 25.5627 83.6295 26.16 84.5895 26.544C85.5708 26.928 86.5095 27.12 87.4055 27.12C88.2375 27.12 88.8988 26.9707 89.3895 26.672C89.9015 26.3733 90.1575 25.9253 90.1575 25.328C90.1575 24.9227 90.0188 24.6133 89.7415 24.4C89.4642 24.1653 89.0588 23.9627 88.5255 23.792C88.0135 23.6213 87.3842 23.4293 86.6375 23.216C85.4002 22.8107 84.3655 22.416 83.5335 22.032C82.7015 21.648 82.0722 21.168 81.6455 20.592C81.2402 19.9947 81.0375 19.2373 81.0375 18.32C81.0375 17.2107 81.3148 16.2613 81.8695 15.472C82.4455 14.6613 83.2348 14.032 84.2375 13.584C85.2615 13.136 86.4562 12.912 87.8215 12.912C89.0162 12.912 90.1468 13.104 91.2135 13.488C92.2802 13.8507 93.2508 14.448 94.1255 15.28L92.3975 18C91.5442 17.3387 90.7335 16.8587 89.9655 16.56C89.1975 16.24 88.4188 16.08 87.6295 16.08C87.1815 16.08 86.7548 16.1333 86.3495 16.24C85.9655 16.3467 85.6455 16.528 85.3895 16.784C85.1548 17.0187 85.0375 17.36 85.0375 17.808C85.0375 18.2133 85.1442 18.5333 85.3575 18.768C85.5922 18.9813 85.9335 19.1733 86.3815 19.344C86.8508 19.5147 87.4162 19.7067 88.0775 19.92C89.4215 20.304 90.5522 20.6987 91.4695 21.104C92.4082 21.5093 93.1122 22.0107 93.5815 22.608C94.0508 23.184 94.2855 23.984 94.2855 25.008C94.2855 26.672 93.6775 27.9733 92.4615 28.912C91.2455 29.8507 89.6135 30.32 87.5655 30.32ZM108.658 30L103.762 22.768L101.49 25.008V30H97.202V6.64H101.49V20.784L108.242 13.264H112.786L106.546 20.368L113.234 30H108.658ZM115.046 30V13.232H119.334V30H115.046ZM115.046 10.896V6.64H119.334V10.896H115.046ZM124.226 30V17.392H122.018V14.128H124.226V13.104C124.226 11.7173 124.45 10.5227 124.898 9.52C125.367 8.496 126.018 7.70667 126.85 7.152C127.703 6.59733 128.695 6.32 129.826 6.32C130.509 6.32 131.191 6.40533 131.874 6.576C132.578 6.74667 133.271 6.992 133.954 7.312L133.09 10.544C132.77 10.3733 132.397 10.2347 131.97 10.128C131.543 10 131.138 9.936 130.754 9.936C130.029 9.936 129.474 10.192 129.09 10.704C128.706 11.216 128.514 11.9627 128.514 12.944V14.128H132.61V17.392H128.514V30H124.226ZM135.398 33.264C135.782 33.3493 136.134 33.424 136.454 33.488C136.795 33.552 137.083 33.584 137.318 33.584C137.723 33.584 138.054 33.4773 138.31 33.264C138.587 33.072 138.854 32.7093 139.11 32.176C139.366 31.664 139.632 30.9387 139.91 30L133.286 13.232H137.734L142.246 25.616L146.214 13.232H150.31L143.27 33.328C143.014 34.0747 142.619 34.7467 142.086 35.344C141.574 35.9627 140.923 36.4427 140.134 36.784C139.366 37.1467 138.502 37.328 137.542 37.328C137.2 37.328 136.859 37.296 136.518 37.232C136.176 37.1893 135.803 37.104 135.398 36.976V33.264Z" fill="black"/>
</svg>
